<svg xmlns="http://www.w3.org/2000/svg" viewBox="0 0 480 480"><path d="M456 448V128c0-13.255-10.745-24-24-24H48c-13.255 0-24 10.745-24 24v320h432z" fill="#ccc"/><path d="M472 424v24c0 13.255-10.745 24-24 24H32c-13.255 0-24-10.745-24-24v-24h160l16 16h112l16-16h160z" fill="#999"/><path d="M56 136h368v240H56V136z" fill="#29abe2"/><path d="M152 336h-24c-13.255 0-24-10.745-24-24V32c0-13.255 10.745-24 24-24h224c13.255 0 24 10.745 24 24v280c0 13.255-10.745 24-24 24H152z" fill="#e6e6e6"/><path d="M128 8h224c13.255 0 24 10.745 24 24v40H104V32c0-13.255 10.745-24 24-24z" fill="#0071bc"/><path d="M232 400h16v16h-16v-16z"/><path d="M472 416h-8V128c0-17.673-14.327-32-32-32h-48V32c0-17.673-14.327-32-32-32H128c-17.673 0-32 14.327-32 32v64H48c-17.673 0-32 14.327-32 32v288H8a8 8 0 0 0-8 8v24c0 17.673 14.327 32 32 32h416c17.673 0 32-14.327 32-32v-24a8 8 0 0 0-8-8zm-344-72h224c17.673 0 32-14.327 32-32V144h32v224H64V144h32v168c0 17.673 14.327 32 32 32zM112 80h256v232c0 8.837-7.163 16-16 16H128c-8.837 0-16-7.163-16-16V80zm16-64h224c8.837 0 16 7.163 16 16v32H112V32c0-8.837 7.163-16 16-16zM32 128c0-8.837 7.163-16 16-16h48v16H56a8 8 0 0 0-8 8v240a8 8 0 0 0 8 8h368a8 8 0 0 0 8-8V136a8 8 0 0 0-8-8h-40v-16h48c8.837 0 16 7.163 16 16v288H312a8 8 0 0 0-5.656 2.336L292.688 432H187.312l-13.656-13.664A8 8 0 0 0 168 416H32V128zm432 320c0 8.837-7.163 16-16 16H32c-8.837 0-16-7.163-16-16v-16h148.688l13.656 13.656A8 8 0 0 0 184 448h112a8 8 0 0 0 5.656-2.344L315.312 432H464v16z"/><path d="M136 256h208v16H136v-16zm0 32h192v16H136v-16zm48-64h160v16H184v-16zM128 32h16v16h-16V32zm32 0h16v16h-16V32zm32 0h16v16h-16V32zm-40 192h16v16h-16v-16zm51.2-41.6l9.6-12.8-23.464-17.6 23.464-17.6-9.6-12.8-32 24a8 8 0 0 0 0 12.8l32 24zm73.6 0l32-24a8 8 0 0 0 0-12.8l-32-24-9.6 12.8 23.464 17.6-23.464 17.6 9.6 12.8zm-60.226 6.625l32.007-79.994 14.862 5.947-32.007 79.994-14.862-5.947z"/></svg>