<svg xmlns="http://www.w3.org/2000/svg" viewBox="0 0 512 512"><path d="M30.776 10.018h323.177v326.281l-34.652-34.653-58.465-20.053 20.054 58.464 73.064 73.065v86.136H30.776V10.018zm52.907 102.28v152.101h217.364V112.298H83.683z" fill="#f0f0fb"/><path d="M83.683 112.298h217.364v101.21l-35.514-29.386c-6.807-5.633-17.946-5.633-24.753 0l-54.192 44.843-30.281-25.058c-6.807-5.633-17.946-5.633-24.753 0L83.683 243.52V112.298zm112.128 25.339c-11.185 0-20.256 9.071-20.256 20.257 0 11.184 9.071 20.257 20.256 20.257 11.186 0 20.256-9.073 20.256-20.257-.001-11.186-9.072-20.257-20.256-20.257z" fill="#ff8346"/><path d="M301.047 213.508v50.891H83.683V243.52l47.872-39.613c6.807-5.633 17.946-5.633 24.753 0l30.281 25.058 54.192-44.843c6.807-5.633 17.946-5.633 24.753 0l35.513 29.386z" fill="#6fc"/><path d="M195.811 137.637c11.186 0 20.256 9.071 20.256 20.257 0 11.184-9.071 20.257-20.256 20.257s-20.256-9.073-20.256-20.257c-.001-11.186 9.071-20.257 20.256-20.257zM481.225 463.57l-38.412 38.412 38.412-38.412zm-79.604-2.779L280.889 340.057l38.412-38.412 129.086 129.087-8.353-8.355-38.413 38.414z" fill="#ffce34"/><path fill="#3c9fd7" d="M260.836 281.593l58.465 20.053-38.412 38.411z"/><path fill="#fd4a4a" d="M481.23 463.566l-38.414 38.413-41.19-41.19 38.414-38.413z"/><path d="M488.309 456.487l-41.192-41.192 41.192 41.192-124.338-124.338V10.018C363.971 4.485 359.486 0 353.953 0H30.776c-5.533 0-10.018 4.485-10.018 10.018v489.241c0 5.532 4.485 10.018 10.018 10.018h323.177c5.533 0 10.018-4.486 10.018-10.018v-61.951l71.758 71.759a9.987 9.987 0 0 0 7.084 2.934 9.991 9.991 0 0 0 7.084-2.934l38.412-38.412a10.022 10.022 0 0 0 0-14.168zm-193.253-116.43l24.245-24.244 106.565 106.565-24.245 24.244-106.565-106.565zm-9.9-18.434l-8.201-23.91 23.91 8.201-15.709 15.709zm58.779 167.618H40.794V20.035h303.141V35.16h-38.889c-5.533 0-10.018 4.486-10.018 10.018s4.485 10.018 10.018 10.018h38.889v256.919l-17.551-17.552c-.052-.053-.11-.098-.164-.148a9.392 9.392 0 0 0-1.217-.996 11.27 11.27 0 0 0-.822-.512 8.37 8.37 0 0 0-.41-.214c-.15-.075-.303-.148-.459-.217a10.763 10.763 0 0 0-.488-.194c-.093-.035-.181-.078-.275-.11l-51.762-17.754h30.258c5.533 0 10.018-4.486 10.018-10.018 0-.003 0 .003 0 0V112.3c0-5.532-4.485-10.018-10.018-10.018H83.683c-5.533 0-10.018 4.486-10.018 10.018v152.101c0 .005 0-.004 0 0 0 5.532 4.485 10.018 10.018 10.018h170.176c-.034.033-.073.059-.107.093a10.018 10.018 0 0 0-2.392 10.333l20.053 58.464c.029.083.064.162.095.244.052.14.103.279.161.416.07.165.147.325.225.484.051.104.097.21.151.314.139.263.291.517.451.763.037.056.078.109.115.164a9.895 9.895 0 0 0 1.12 1.368c.026.026.047.055.073.081l.129.129.008.009 69.993 69.993.001 71.967zm-52.906-297.024l-19.11-15.813c-10.522-8.707-27.005-8.708-37.526 0l-47.804 39.558-23.895-19.773c-10.522-8.705-27.006-8.708-37.525 0L93.7 222.228v-99.912h197.328l.001 69.901zM93.7 248.233l44.24-36.609c3.079-2.548 8.902-2.548 11.979 0l30.281 25.058a10.017 10.017 0 0 0 12.774 0l54.192-44.843c3.078-2.548 8.901-2.548 11.979 0l31.883 26.384v36.158H93.7v-6.148zm349.113 239.581l-27.024-27.025 24.245-24.244 27.025 27.025-24.246 24.244z"/><path d="M84.159 313.992h-.476c-5.533 0-10.018 4.485-10.018 10.018 0 5.532 4.485 10.018 10.018 10.018h.476c5.533 0 10.018-4.486 10.018-10.018-.001-5.533-4.486-10.018-10.018-10.018zm29.136 20.036h59.708c5.533 0 10.018-4.486 10.018-10.018 0-5.533-4.485-10.018-10.018-10.018h-59.708c-5.533 0-10.018 4.485-10.018 10.018 0 5.532 4.485 10.018 10.018 10.018zm119.417 20.035H113.295c-5.533 0-10.018 4.485-10.018 10.018 0 5.532 4.485 10.018 10.018 10.018h119.417c5.533 0 10.018-4.486 10.018-10.018 0-5.533-4.485-10.018-10.018-10.018zm-148.553 0h-.476c-5.533 0-10.018 4.485-10.018 10.018 0 5.532 4.485 10.018 10.018 10.018h.476c5.533 0 10.018-4.486 10.018-10.018-.001-5.533-4.486-10.018-10.018-10.018zm148.553 40.071H113.295c-5.533 0-10.018 4.485-10.018 10.018 0 5.532 4.485 10.018 10.018 10.018h119.417c5.533 0 10.018-4.486 10.018-10.018 0-5.533-4.485-10.018-10.018-10.018zm-148.553 0h-.476c-5.533 0-10.018 4.485-10.018 10.018 0 5.532 4.485 10.018 10.018 10.018h.476c5.533 0 10.018-4.486 10.018-10.018-.001-5.533-4.486-10.018-10.018-10.018zM275.434 55.195h.476c5.533 0 10.018-4.486 10.018-10.018S281.443 35.16 275.91 35.16h-.476c-5.533 0-10.018 4.486-10.018 10.018s4.486 10.017 10.018 10.017zm-79.623 132.971c16.693 0 30.273-13.58 30.273-30.272 0-16.693-13.581-30.274-30.273-30.274-16.693 0-30.273 13.581-30.273 30.274-.001 16.692 13.58 30.272 30.273 30.272zm0-40.511c5.645 0 10.238 4.593 10.238 10.239 0 5.645-4.593 10.237-10.238 10.237s-10.238-4.592-10.238-10.237c0-5.646 4.593-10.239 10.238-10.239z"/></svg>