<svg data-name="Layer 1" xmlns="http://www.w3.org/2000/svg" viewBox="0 0 282 163"><path class="cls-1" d="M82.12 38.21v-5.8a4.54 4.54 0 0 0-9.08 0v22.3a4.52 4.52 0 0 0 4.53 4.52 4.53 4.53 0 0 0 4.51-4V38.69a3.87 3.87 0 0 1 .04-.48zM36.63 4.54V27a4.54 4.54 0 0 0 4.49 4.5 4.55 4.55 0 0 0 4.59-4.5V4.54A4.56 4.56 0 0 0 41.12 0a4.54 4.54 0 0 0-4.49 4.54zM92.99 55a4.24 4.24 0 1 0 0-6 4.26 4.26 0 0 0 0 6zM38.34 37.51a4.26 4.26 0 1 0 6 0 4.28 4.28 0 0 0-6 0z"/><ellipse class="cls-1" cx="77.78" cy="18.99" rx="4.25" ry="4.24"/><path class="cls-1" d="M0 163.05l282.48.48.18-102.6a4.54 4.54 0 0 0-9.07-.44 3.08 3.08 0 0 0 0 .43l-.15 20.41a4.54 4.54 0 0 1-9.07.41 3.08 3.08 0 0 1 0-.43V62.66a4.54 4.54 0 0 0-4.53-4.55 4.53 4.53 0 0 0-4.54 4.52v6h-.07v2.75a4.54 4.54 0 0 1-9.07 0v-6.51a4.54 4.54 0 0 0-4.5-4.07 4.53 4.53 0 0 0-4.54 4.51V91.5a4.55 4.55 0 1 1-9.09 0V48.35a4.54 4.54 0 0 0-4.53-4.55 4.52 4.52 0 0 0-4.54 4.47v23.06a4.54 4.54 0 0 1-9.07 0v-2.76h-.05v-3.29a4.53 4.53 0 0 0-4.53-4.54 4.53 4.53 0 0 0-4.54 4.46v13.07a4.54 4.54 0 0 1-9.07 0l.05-27.6a4.54 4.54 0 0 0-9 .68l-.26 29.24a4.55 4.55 0 0 1-9.09 0V61.93a4.54 4.54 0 1 0-9.08 0v6h-.06v2.75a4.54 4.54 0 0 1-9.08 0V64.1a4.54 4.54 0 0 0-4.5-4.07 4.53 4.53 0 0 0-4.56 4.53v26.19a4.54 4.54 0 1 1-9.07.41 3.08 3.08 0 0 1 0-.43V47.59a4.55 4.55 0 0 0-4.63-4.59 4.53 4.53 0 0 0-4.53 4.47v23a4.54 4.54 0 1 1-9.08 0v-6a4.54 4.54 0 0 0-4.57-4.47 4.54 4.54 0 0 0-4.54 4.47v13.08a4.54 4.54 0 0 1-9 1V50.63A4.53 4.53 0 0 0 96.21 46a4.6 4.6 0 0 0-1.37.21 4.55 4.55 0 0 0-3.23 4.33L91.39 71a4.54 4.54 0 1 1-9.07.41 2.94 2.94 0 0 1 0-.42V52.34a4.54 4.54 0 0 0-4.53-4.55 4.52 4.52 0 0 0-4.54 4.52L73.19 61a4.54 4.54 0 0 1-9.07 0v-6.5a4.53 4.53 0 0 0-4.5-4.06 4.53 4.53 0 0 0-4.5 4.56v26.18a4.54 4.54 0 0 1-9.08 0V38a4.56 4.56 0 0 0-4.53-4.55 4.53 4.53 0 0 0-4.54 4.48V61a4.54 4.54 0 0 1-9.07 0v-2.8h-.05v-3.29a4.54 4.54 0 0 0-9.07-.07v13.07a4.54 4.54 0 0 1-9.07 0l.05-27.6A4.583 4.583 0 0 0 .62 41z"/><path class="cls-1" d="M146.06 67.14a4.47 4.47 0 0 0 8.92.47V51.29a3.69 3.69 0 0 1 0-.47v-5.75a4.505 4.505 0 0 0-9-.42 2.94 2.94 0 0 0 0 .42zm-18.41-30.99a4.53 4.53 0 0 0 4.53 4.53 4.54 4.54 0 0 0 4.55-4.53V13.73a4.54 4.54 0 0 0-4.55-4.54 4.54 4.54 0 0 0-4.54 4.54zM165.62 66a4.24 4.24 0 1 0 0-6 4.26 4.26 0 0 0 0 6zm-36.29-18.21a4.24 4.24 0 1 0 6 0 4.24 4.24 0 0 0-6 0zm18.26-14.08a4.26 4.26 0 1 0 0-6 4.26 4.26 0 0 0 0 6z"/></svg>