<svg xmlns="http://www.w3.org/2000/svg" width="15" height="15"><path d="M8.559 10.675a1.06 1.06 0 1 1-2.12 0 1.06 1.06 0 0 1 2.12 0zM4.325 6.442a1.058 1.058 0 1 0-.002 2.116 1.058 1.058 0 0 0 .002-2.116zm3.175 0a1.058 1.058 0 1 0 0 2.118 1.058 1.058 0 0 0 0-2.118zm3.175 0a1.058 1.058 0 1 0 0 2.117 1.058 1.058 0 1 0 0-2.117zm0-3.174a1.058 1.058 0 1 0 0 2.117 1.058 1.058 0 1 0 0-2.117zm0-3.175a1.058 1.058 0 1 0 0 2.117 1.058 1.058 0 1 0 0-2.117zM7.5 3.268a1.057 1.057 0 1 0 0 2.116 1.059 1.059 0 1 0 0-2.116zm3.175 9.524a1.059 1.059 0 1 0 0 2.117 1.059 1.059 0 0 0 0-2.117zm0-3.175a1.058 1.058 0 1 0 0 2.118 1.06 1.06 0 1 0 0-2.118z"/></svg>