<svg xmlns="http://www.w3.org/2000/svg" viewBox="0 0 15 15"><path d="M6.4 4.3c0-.6.5-1.1 1.1-1.1s1.1.5 1.1 1.1-.5 1.1-1.1 1.1-1.1-.5-1.1-1.1zm4.3 4.3c.6 0 1.1-.5 1.1-1.1s-.5-1.1-1.1-1.1-1.1.5-1.1 1.1.5 1.1 1.1 1.1zm-3.2 0c.6 0 1.1-.5 1.1-1.1s-.5-1.1-1.1-1.1-1.1.5-1.1 1.1.5 1.1 1.1 1.1zm-3.2 0c.6 0 1.1-.5 1.1-1.1s-.5-1.1-1.1-1.1c-.6 0-1.1.5-1.1 1.1s.5 1.1 1.1 1.1zm0 3.1c.6 0 1.1-.5 1.1-1.1 0-.6-.5-1.1-1.1-1.1-.6 0-1.1.5-1.1 1.1s.5 1.1 1.1 1.1zm0 3.2c.6 0 1.1-.5 1.1-1.1s-.5-1.1-1.1-1.1c-.6 0-1.1.5-1.1 1.1s.5 1.1 1.1 1.1zm3.2-3.2c.6 0 1.1-.5 1.1-1.1 0-.6-.5-1.1-1.1-1.1s-1.1.5-1.1 1.1.5 1.1 1.1 1.1zM4.3 2.2c.6 0 1.1-.5 1.1-1.1C5.4.5 4.9 0 4.3 0c-.6 0-1.1.5-1.1 1.1.1.6.5 1.1 1.1 1.1zm0 3.2c.6 0 1.1-.5 1.1-1.1s-.5-1-1.1-1c-.6 0-1.1.5-1.1 1.1s.5 1 1.1 1z"/></svg>