<svg xmlns="http://www.w3.org/2000/svg" viewBox="0 0 480 480"><path d="M120 472H96c-13.255 0-24-10.745-24-24V32C72 18.745 82.745 8 96 8h336c13.255 0 24 10.745 24 24v416c0 13.255-10.745 24-24 24H120z" fill="#e6e6e6"/><path d="M96 8h336c13.255 0 24 10.745 24 24v40H72V32C72 18.745 82.745 8 96 8z" fill="#0071bc"/><path d="M24 184h224v144H24V184z" fill="#29abe2"/><path d="M320 256v-24.632c-30.611-17.673-41.099-56.815-23.426-87.426 17.673-30.611 56.815-41.099 87.426-23.426s41.099 56.815 23.426 87.426A64.003 64.003 0 0 1 384 231.368V256h-64z" fill="#fcbf29"/><path d="M320 256h64v32h-64v-32z" fill="#0071bc"/><path d="M328 216c35.315.03 63.968-28.574 63.998-63.89a63.943 63.943 0 0 0-8.39-31.718c30.707 17.407 41.489 56.411 24.082 87.118A63.92 63.92 0 0 1 384 231.368V256h-64v-24.632a64.453 64.453 0 0 1-23.56-23.728A63.658 63.658 0 0 0 328 216z" opacity=".5" fill="#f28d01"/><path d="M352 432l64-32-64-32H24v64h328z" fill="#da4836"/><path d="M72 368h32v64H72v-64z" fill="#f8cf26"/><path d="M24 368h48v64H24v-64z" fill="#fbb03b"/><path d="M352 368l64 32-64 32v-64z" fill="#8c6239"/><path d="M104 400h248v32H104v-32z" fill="#f7931e"/><path d="M96 32h16v16H96V32zm32 0h16v16h-16V32zm32 0h16v16h-16V32z"/><path d="M24 440h40v8c0 17.673 14.327 32 32 32h336c17.673 0 32-14.327 32-32V32c0-17.673-14.327-32-32-32H96C78.327 0 64 14.327 64 32v144H24a8 8 0 0 0-8 8v144a8 8 0 0 0 8 8h40v24H24a8 8 0 0 0-8 8v64a8 8 0 0 0 8 8zm56-64h16v48H80v-48zm264 0v16H112v-16h232zm-232 32h232v16H112v-16zm248 11.056v-38.112L398.112 400 360 419.056zM96 16h336c8.837 0 16 7.163 16 16v32H80V32c0-8.837 7.163-16 16-16zM32 192h208v128H32V192zm216 144a8 8 0 0 0 8-8V184a8 8 0 0 0-8-8H80V80h368v368c0 8.837-7.163 16-16 16H96c-8.837 0-16-7.163-16-16v-8h272a7.99 7.99 0 0 0 3.576-.8l64-32a8 8 0 0 0 0-14.32l-64-32a7.916 7.916 0 0 0-3.32-.8c-.088 0-.168-.064-.256-.064H80V336h168zM32 376h32v48H32v-48z"/><path d="M99.2 225.6l-32 24a8 8 0 0 0 0 12.8l32 24 9.6-12.8L85.336 256l23.464-17.6-9.6-12.8zm73.6 0l-9.6 12.8 23.464 17.6-23.464 17.6 9.6 12.8 32-24a8 8 0 0 0 0-12.8l-32-24zm-60.234 67.413l32.007-79.994 14.862 5.947-32.007 79.994-14.862-5.947zM104 136h152v16H104v-16zm32-32h120v16H136v-16zm-32 0h16v16h-16v-16zm200 216h120v16H304v-16zm-32 0h16v16h-16v-16zm40-84.2V248h-16v16h16v24a8 8 0 0 0 8 8h64a8 8 0 0 0 8-8v-24h16v-16h-16v-12.2c33.063-22.091 41.958-66.803 19.867-99.867S345.063 93.976 312 116.067s-41.958 66.803-19.867 99.867A72.017 72.017 0 0 0 312 235.8zm64 44.2h-48v-16h48v16zm-24-160c30.928.047 55.962 25.157 55.915 56.085A56 56 0 0 1 380 224.448a8 8 0 0 0-4 6.92V248h-16v-44.688l21.656-21.656-11.312-11.312L352 188.688l-18.344-18.344-11.312 11.312L344 203.312V248h-16v-16.632a8 8 0 0 0-4-6.92c-26.757-15.511-35.874-49.776-20.363-76.533A56 56 0 0 1 352 120z"/></svg>