<svg xmlns="http://www.w3.org/2000/svg" viewBox="0 0 512 512"><path fill="#269bd8" d="M25.6 8.533h273.067v34.134h-34.134V76.8H25.6z"/><path fill="#90d1f3" d="M264.533 435.2H25.6V76.8h238.933v136.533h34.134v85.334h-34.134z"/><path fill="#269bd8" d="M25.6 503.467h273.067v-34.134h-34.134V435.2H25.6z"/><path d="M264.533 298.667H486.4v170.667H264.533zm0-256H486.4v170.667H264.533z" fill="#fcbf29"/><path d="M264.533 469.333V298.667H281.6c0 94.259 76.408 170.667 170.667 170.667H264.533zm0-256V42.667H281.6c0 94.259 76.408 170.667 170.667 170.667H264.533z" fill="#f28d01" opacity=".5"/><path d="M196.267 264.533v-26.274c32.649-18.85 43.836-60.604 24.986-93.252S160.649 101.163 128 120.021s-43.836 60.604-24.986 93.252A68.255 68.255 0 0 0 128 238.259v26.274h68.267z" fill="#fcbf29"/><path fill="#fff" d="M128 264.533h68.267v34.133H128z"/><path fill="#269bd8" d="M128 298.667h34.133V358.4H128z"/><path d="M187.733 221.867c-37.666.034-68.233-30.481-68.267-68.147a68.197 68.197 0 0 1 8.951-33.835c-32.751 18.569-44.254 60.169-25.685 92.928a68.153 68.153 0 0 0 25.267 25.446v26.274h68.267v-26.274a68.756 68.756 0 0 0 25.131-25.31 67.907 67.907 0 0 1-33.664 8.918z" fill="#f28d01" opacity=".5"/><path fill="#90d1f3" d="M162.133 298.667h34.133V358.4h-34.133z"/><path fill="#fff" d="M128 358.4h68.267l-34.134 42.667z"/><path d="M25.6 512h273.067a8.536 8.536 0 0 0 8.533-8.533v-25.6h179.2a8.536 8.536 0 0 0 8.533-8.533V298.667a8.536 8.536 0 0 0-8.533-8.533H307.2v-68.267h179.2a8.536 8.536 0 0 0 8.533-8.533V42.667a8.536 8.536 0 0 0-8.533-8.533H307.2v-25.6a8.536 8.536 0 0 0-8.533-8.533H25.6a8.536 8.536 0 0 0-8.533 8.533v494.933A8.536 8.536 0 0 0 25.6 512zm264.533-17.067h-256v-51.2H256v25.6a8.536 8.536 0 0 0 8.533 8.533h25.6v17.067zM477.867 460.8h-204.8V307.2h204.8v153.6zM290.133 290.133h-25.6a8.536 8.536 0 0 0-8.533 8.533v128H34.133V85.333H256v128a8.536 8.536 0 0 0 8.533 8.533h25.6v68.267zM477.867 204.8h-204.8V51.2h204.8v153.6zM290.133 17.067v17.067h-25.6A8.536 8.536 0 0 0 256 42.667v25.6H34.133v-51.2h256z"/><path d="M170.667 34.133h17.067V51.2h-17.067zm-34.134 0H153.6V51.2h-17.067zm25.6 68.267c-42.394-.017-76.774 34.33-76.791 76.723a76.763 76.763 0 0 0 34.125 63.863V358.4c0 1.937.657 3.823 1.869 5.333l34.133 42.667c2.944 3.678 8.311 4.275 11.998 1.331a8.548 8.548 0 0 0 1.331-1.331l34.133-42.667a8.525 8.525 0 0 0 1.869-5.333V242.987c35.251-23.543 44.74-71.211 21.197-106.462a76.765 76.765 0 0 0-63.864-34.125zm25.6 170.667v17.067h-51.2v-17.067h51.2zm-17.066 76.8V307.2h17.067v42.667h-17.067zM136.533 307.2H153.6v42.667h-17.067V307.2zm25.6 80.213l-16.384-20.48h32.768l-16.384 20.48zM192 230.886a8.522 8.522 0 0 0-4.267 7.381V256h-17.067v-47.667l23.1-23.1-12.066-12.066-19.567 19.567-19.567-19.567-12.066 12.066 23.1 23.1V256h-17.067v-17.741a8.522 8.522 0 0 0-4.267-7.381c-28.57-16.495-38.357-53.026-21.862-81.596S163.43 110.925 192 127.42s38.357 53.026 21.862 81.596A59.692 59.692 0 0 1 192 230.878v.008zm144.213-87.526l10.24-13.653-25.028-18.773 25.028-18.773-10.24-13.653-34.133 25.6c-3.772 2.825-4.531 8.175-1.707 11.947a8.496 8.496 0 0 0 1.707 1.707l34.133 25.598zm78.507 0l34.133-25.6c3.772-2.825 4.531-8.175 1.707-11.947a8.496 8.496 0 0 0-1.707-1.707l-34.133-25.6-10.24 13.654 25.028 18.773-25.028 18.773 10.24 13.654zm-14.24-71.935l-34.14 85.321-15.845-6.34 34.142-85.32zM153.6 460.8h17.067v17.067H153.6zm145.067-290.133h17.067v17.067h-17.067zm34.133 0h17.067v17.067H332.8zm34.133 0H384v17.067h-17.067zm34.134 0h17.067v17.067h-17.067zm34.133 0h17.067v17.067H435.2zm-76.8 153.6h17.067v17.067H358.4zm34.133 0H460.8v17.067h-68.267zM358.4 358.4h102.4v17.067H358.4zm-68.267 34.133H460.8V409.6H290.133zm0 34.134h136.533v17.067H290.133zm8.534-51.2H332.8a8.536 8.536 0 0 0 8.533-8.533V332.8a8.536 8.536 0 0 0-8.533-8.533h-34.133a8.536 8.536 0 0 0-8.533 8.533v34.133c-.001 4.711 3.822 8.534 8.533 8.534zm8.533-34.134h17.067V358.4H307.2v-17.067z"/></svg>