<svg xmlns="http://www.w3.org/2000/svg" viewBox="0 0 512 512"><path fill="#7acbfa" d="M488 448H336.024L316 456H196l-22.04-8H24V168h464z"/><path fill="#d1e5f1" d="M56 200h400v216H56z"/><path d="M496 216H112c-4.416 0-8-3.584-8-8V32c0-4.416 3.584-8 8-8h384c4.416 0 8 3.584 8 8v176c0 4.416-3.584 8-8 8z" fill="#fb7647"/><path d="M402.56 184H141.44c-3.008 0-5.44-2.384-5.44-5.336V61.336c0-2.952 2.432-5.336 5.44-5.336h261.12c3.008 0 5.44 2.384 5.44 5.336v117.336c0 2.944-2.432 5.328-5.44 5.328z" fill="#f1d9d0"/><circle cx="312" cy="216" r="96" fill="#fdcd3b"/><path d="M496 224h-72v-16h72V32H112v176h88v16h-88c-8.824 0-16-7.176-16-16V32c0-8.824 7.176-16 16-16h384c8.824 0 16 7.176 16 16v176c0 8.824-7.176 16-16 16zM112 352H88c-4.416 0-8-3.584-8-8v-24h16v16h16v16zm72-72h-16v-16h-16v-16h24c4.416 0 8 3.584 8 8v24zm-26.355 5.667l-39.993 39.993-11.313-11.313 39.993-39.993zm152.011 47.989l-11.312-11.312L308.688 312l-10.344-10.344 11.312-11.312 16 16a7.991 7.991 0 0 1 0 11.312l-16 16z"/><path d="M314.344 141.656l-16-16a7.991 7.991 0 0 1 0-11.312l16-16 11.312 11.312L315.312 120l10.344 10.344-11.312 11.312zm-29.648 174.72c-35.704-9.688-63.76-37.92-73.232-73.68A104.18 104.18 0 0 1 208 216c0-8.288.984-16.544 2.912-24.544 8.904-36.792 37.136-65.84 73.664-75.8l4.208 15.44c-30.912 8.424-54.792 33-62.32 64.128A88.694 88.694 0 0 0 224 216a88.15 88.15 0 0 0 2.928 22.6c8.008 30.256 31.752 54.144 61.952 62.336l-4.184 15.44zm53.384.32l-4-15.496a87.836 87.836 0 0 0 63.312-63.848A88.503 88.503 0 0 0 400 216c0-6.784-.776-13.536-2.296-20.072-7.4-31.72-31.552-56.624-63.048-64.984l4.112-15.464c37.224 9.88 65.776 39.32 74.52 76.816C415.088 200.016 416 208 416 216c0 8.52-1.032 17.008-3.08 25.224a103.807 103.807 0 0 1-74.84 75.472z"/><path d="M312 240c-2.12 0-4.152-.84-5.656-2.344l-24-24 11.312-11.312 17.808 17.808 34.392-41.272 12.288 10.24-40 48a8.004 8.004 0 0 1-5.784 2.872c-.12.008-.24.008-.36.008z"/><circle cx="456" cy="120" r="16" fill="#f2e9ce"/><path d="M456 144c-13.232 0-24-10.768-24-24s10.768-24 24-24 24 10.768 24 24-10.768 24-24 24zm0-32c-4.408 0-8 3.592-8 8s3.592 8 8 8 8-3.592 8-8-3.592-8-8-8zm-256 80h-64c-4.416 0-8-3.584-8-8V56c0-4.416 3.584-8 8-8h272c4.416 0 8 3.584 8 8v88h-16V64H144v112h56v16z"/><path fill="#21a9f6" d="M493.216 488H18.784L8 474.504V448h165.96l22.24 8h118.936l20.888-8H504v30z"/><path d="M240 408h32v16h-32z"/><path d="M504 440h-8V240h-16v200H336.024c-.976 0-1.952.176-2.856.528L313.656 448H197.6l-20.936-7.528a7.982 7.982 0 0 0-2.704-.472H32V176h48v-16H24c-4.416 0-8 3.584-8 8v272H8c-4.416 0-8 3.584-8 8v26.504c0 1.816.616 3.576 1.752 4.992l10.784 13.496A7.965 7.965 0 0 0 18.784 496h474.44c2.016 0 3.96-.76 5.44-2.136l10.784-10A8.034 8.034 0 0 0 512 478v-30c0-4.416-3.584-8-8-8zm-8 34.504L490.08 480H22.632L16 471.704V456h32v8h16v-8h108.56l20.936 7.528a7.982 7.982 0 0 0 2.704.472h118.928c.976 0 1.952-.176 2.856-.528l19.52-7.472H416v8h16v-8h16v8h16v-8h32v18.504z"/><path d="M224 424H56c-4.416 0-8-3.584-8-8V200c0-4.416 3.584-8 8-8h24v16H64v200h160v16zm232 0H288v-16h160V240h16v176c0 4.416-3.584 8-8 8z"/></svg>